<svg xmlns="http://www.w3.org/2000/svg" width="21" height="21" viewBox="0 0 21 21">
    <path fill="#FAFAFA" fill-rule="evenodd" d="M10.5.976c-1.45 0-2.81.267-4.081.802a10.525 10.525 0 0 0-3.353 2.194c-.95.929-1.699 2.02-2.246 3.277A9.789 9.789 0 0 0 0 11.237a9.87 9.87 0 0 0 .533 3.246A10.239 10.239 0 0 0 2.02 17.3a10.165 10.165 0 0 0 2.287 2.214 10.728 10.728 0 0 0 2.87 1.463c.26.04.445 0 .554-.12a.56.56 0 0 0 .165-.38v-.722c0-.36-.007-.755-.021-1.183-1.45.308-2.4.184-2.85-.37l-.677-.832c-.246-.601-.503-1.002-.77-1.202l-.4-.301c-.478-.32-.584-.504-.317-.551l.4-.07c.52.027.916.207 1.19.54l.41.502c.464.788 1.014 1.162 1.65 1.122.636-.04 1.104-.127 1.405-.26.055-.334.144-.615.267-.842a1.97 1.97 0 0 1 .41-.541 8.74 8.74 0 0 1-1.743-.34 4.45 4.45 0 0 1-1.538-.812c-.452-.368-.814-.866-1.087-1.493-.288-.628-.431-1.437-.431-2.425 0-.561.096-1.07.287-1.523.191-.455.458-.862.8-1.223-.055-.133-.123-.444-.205-.932-.082-.487.02-1.085.307-1.793l.687.03c.458.02 1.193.364 2.205 1.032.41-.12.837-.207 1.282-.26a11.24 11.24 0 0 1 2.686 0c.445.053.872.14 1.282.26.998-.668 1.73-1.012 2.194-1.032l.698-.03c.287.708.39 1.306.307 1.793-.082.488-.15.799-.205.932.342.36.609.768.8 1.223.191.454.287.962.287 1.523 0 .988-.143 1.797-.43 2.425-.274.627-.64 1.125-1.098 1.493a4.559 4.559 0 0 1-1.548.811c-.56.16-1.135.274-1.723.34.192.161.36.398.503.712.143.314.215.712.215 1.193 0 .681-.003 1.279-.01 1.793-.007.515-.01.852-.01 1.012 0 .134.054.264.164.391.109.127.293.164.553.11a11.06 11.06 0 0 0 2.892-1.463 10.239 10.239 0 0 0 3.753-5.03A9.87 9.87 0 0 0 21 11.237a9.789 9.789 0 0 0-.82-3.988 10.255 10.255 0 0 0-2.246-3.277 10.525 10.525 0 0 0-3.353-2.194A10.424 10.424 0 0 0 10.5.976z"/>
</svg>
