<svg xmlns="http://www.w3.org/2000/svg" width="121" height="76" viewBox="0 0 121 76">
    <g fill="none" fill-rule="evenodd">
        <path fill="#1F2B4E" d="M87.493 16.81l18.535 10.752a5.965 5.965 0 0 1 2.972 5.16v21.556a5.965 5.965 0 0 1-2.972 5.16L87.493 70.19a5.965 5.965 0 0 1-5.986 0L62.972 59.438A5.965 5.965 0 0 1 60 54.278V32.722a5.965 5.965 0 0 1 2.972-5.16L81.507 16.81a5.965 5.965 0 0 1 5.986 0z"/>
        <path fill="#DE4270" d="M49.272 44.018l4.662-5.525h2.82v-3.03H48.52v3.03h1.504l-2.934 3.494-3.196-3.494h1.618v-3.03h-8.99v3.03h2.895l5.041 5.22-4.7 5.565h-3.236v3.07h8.688v-3.07h-1.579l3.044-3.493 3.31 3.493h-1.617v3.07h9.064v-3.07h-3.048l-5.112-5.26zm-19.955-5.224c-.656 0-1.139-.181-1.522-.572a1.688 1.688 0 0 1-.224-.283 1.772 1.772 0 0 1-.227-.5 2.787 2.787 0 0 1-.11-.82c0-.037 0-.07.004-.106v-.004c.01-.405.089-.75.234-1.046a1.873 1.873 0 0 1 .56-.684l.004-.004c.34-.26.756-.38 1.28-.38.682 0 1.203.196 1.597.598.135.14.249.296.334.47.007.01.014.022.017.03.157.318.231.69.231 1.125 0 .438-.074.807-.23 1.115a1.818 1.818 0 0 1-.341.478c-.397.391-.922.583-1.607.583zM23.743 23.95c.05-.066.103-.13.16-.192.38-.402.862-.587 1.511-.587.682 0 1.203.196 1.597.598.39.401.582.933.582 1.625 0 .688-.188 1.209-.571 1.593-.398.391-.923.583-1.608.583-.39 0-.72-.065-1.004-.203a1.71 1.71 0 0 1-.518-.37c-.376-.383-.56-.908-.56-1.603 0-.594.135-1.068.411-1.444zm7.521 16.613c.423-.192.802-.46 1.143-.796.809-.804 1.217-1.861 1.217-3.15 0-1.278-.405-2.342-1.207-3.16v-.004c-.801-.815-1.844-1.231-3.1-1.231-1.228 0-2.253.42-3.037 1.242a4.07 4.07 0 0 0-.958 1.643c-3.47.764-6.396 2.777-8.156 5.489l.014-1.376V27.368h4.414c.191.435.457.822.794 1.166.784.804 1.802 1.21 3.026 1.21 1.25 0 2.289-.403 3.09-1.2.81-.803 1.217-1.86 1.217-3.149 0-1.278-.404-2.342-1.206-3.16v-.004c-.802-.815-1.845-1.231-3.1-1.231-1.228 0-2.253.42-3.037 1.242a4.062 4.062 0 0 0-.98 1.709H10v3.417h3.384l-.039 15.77h.015l-.015 6.122H10v3.088h11.846V49.26h-4.701v-.148c.252-5.163 3.658-9.446 8.248-10.774a3.9 3.9 0 0 0 .898 1.419c.347.355.738.633 1.174.833v8.688h-3.118v3.07h10.04v-3.07h-3.123v-8.714z"/>
        <path fill="#FAFAFA" d="M87.773 42.453v5.689h2.524V50.5h-6.712v-2.358h1.219v-5.395c0-1.16-.199-1.99-.594-2.491-.398-.5-1.07-.75-2.02-.75a4.88 4.88 0 0 0-1.588.277c-.546.19-.975.429-1.291.723v7.636h1.216V50.5h-5.463v-2.358h1.247v-5.395c0-1.179-.193-2.016-.577-2.505-.387-.492-1.056-.737-2.006-.737a4.88 4.88 0 0 0-1.588.278c-.546.19-.986.429-1.322.723v7.636h1.246V50.5h-6.708v-2.358h2.465v-7.725L65 39.505l.77-2.358 4.13 1.354a6.515 6.515 0 0 1 1.988-1.103A6.61 6.61 0 0 1 74.115 37c.89 0 1.686.136 2.39.411.702.276 1.27.679 1.708 1.21a6.794 6.794 0 0 1 2.017-1.179A6.467 6.467 0 0 1 82.546 37c1.843 0 3.174.422 3.995 1.268.82.842 1.232 2.238 1.232 4.185zm16.227 1c0 .334-.04.815-.118 1.447l-10.095.027c.079 1.238.518 2.166 1.32 2.786.803.618 1.787.93 2.955.93 1.663 0 3.117-.501 4.364-1.505l1.129 1.799C101.933 50.31 100.12 51 98.12 51c-2.216 0-3.974-.628-5.268-1.888-1.297-1.257-1.947-2.956-1.947-5.097 0-1.376.283-2.594.849-3.656a6.142 6.142 0 0 1 2.358-2.475c1.011-.59 2.177-.884 3.504-.884 1.961 0 3.513.59 4.661 1.768 1.149 1.18 1.723 2.742 1.723 4.686zm-10.154-.647h7.185c0-1.02-.308-1.852-.922-2.492-.613-.636-1.423-.956-2.434-.956-1.008 0-1.874.322-2.597.973-.722.648-1.134 1.474-1.232 2.475z"/>
    </g>
</svg>
