<svg xmlns="http://www.w3.org/2000/svg" xmlns:xlink="http://www.w3.org/1999/xlink" width="65" height="57" viewBox="0 0 65 57">
    <defs>
        <path id="a" d="M0 2.611h8.18V12.66H0z"/>
        <path id="c" d="M.417.588h25.947v27.3H.417z"/>
        <path id="e" d="M1.24 1.91h35.847V48H1.24z"/>
    </defs>
    <g fill="none" fill-rule="evenodd">
        <g transform="translate(0 -.587)">
            <mask id="b" fill="#fff">
                <use xlink:href="#a"/>
            </mask>
            <path fill="#2680BB" d="M3.498 3.096c.972-.564 1.857-.621 2.493-.246l2.19 1.269c-.633-.37-1.524-.315-2.496.243C3.747 5.478 2.178 8.19 2.19 10.41c.003 1.107.39 1.884 1.017 2.25l-2.178-1.272c-.633-.363-1.03-1.137-1.03-2.244-.002-2.226 1.56-4.932 3.499-6.048" mask="url(#b)"/>
        </g>
        <path fill="#1F6999" d="M11.671 20.827l.133 21.318c0 .795.281 1.35.737 1.608l-4.61-2.763c-.454-.267-.72-.822-.73-1.605l-.14-21.324 4.61 2.766z"/>
        <path fill="#144262" d="M18.73 16.72l-7.06 4.108.132 21.317c.018 1.59 1.143 2.23 2.517 1.434l2.046-1.19c1.392-.81 2.508-2.752 2.496-4.35L18.73 16.72z"/>
        <path fill="#FF755A" d="M13.955 29.125l.015 3.714c0 .41.144.699.375.83l-1.602-.923c-.225-.135-.378-.426-.378-.828v-3.72l1.59.927z"/>
        <path fill="#926822" d="M15.602 24.852c.357-.21.68-.228.915-.087l1.587.924c-.228-.132-.55-.12-.915.093l-1.953 1.131-1.593-.927 1.959-1.134z"/>
        <path fill="#FF755A" d="M15.236 26.913l-1.594-.927c-.707.408-1.277 1.392-1.277 2.211l1.59.927c-.01-.816.572-1.797 1.28-2.211"/>
        <path fill="#FF481D" d="M15.236 26.913c-.709.414-1.29 1.395-1.282 2.211l.015 3.717c0 .819.583 1.149 1.288.747l1.961-1.14c.706-.414 1.279-1.404 1.279-2.223l-.015-3.708c0-.819-.58-1.152-1.293-.735l-1.954 1.131z"/>
        <g transform="translate(0 -.587)">
            <mask id="d" fill="#fff">
                <use xlink:href="#c"/>
            </mask>
            <path fill="#FF481D" d="M8.481 1.698c2.244-1.302 4.281-1.422 5.754-.56l12.13 7.043c-1.47-.852-3.51-.735-5.758.564-4.47 2.58-8.076 8.83-8.055 13.96 0 2.552.9 4.35 2.35 5.183L2.777 20.844c-1.455-.84-2.355-2.637-2.36-5.187C.401 10.524 4.02 4.275 8.48 1.698" mask="url(#d)"/>
        </g>
        <path fill="#B5802A" d="M20.607 8.159c-4.47 2.58-8.076 8.829-8.055 13.958.01 5.136 3.64 7.203 8.11 4.623 4.463-2.57 8.072-8.828 8.063-13.961-.02-5.133-3.654-7.197-8.118-4.62"/>
        <path fill="#FFF" d="M39.772 49.047c-2.913 1.155-5.667 1.248-7.842.192-.978-.54-1.362-.88-1.341-.87-.975-.918-1.317-1.44-1.305-1.425-4.8-7.66.147-20.46 6.759-27.97 3.03-3.35 6.17-5.12 6.17-5.12 2.953-1.665 6.946-2.793 10.036-1.293 10.227 5.292 2.067 30.333-12.477 36.486m-14.037-4.533c2.139 6.57 8.394 7.91 14.448 4.899.066-.045.138-.072.207-.108.015-.015.039-.024.057-.033 2.634-1.326 5.115-3.34 7.308-5.733 9.942-10.566 12.624-27.102 5.265-32.304C41.764 3.273 20.2 28.11 25.735 44.514"/>
        <path fill="#EEE2B0" d="M41.947 50.475c6.849-3.213 12.756-11.229 15.375-18.606 5.178-14.55-3.624-25.86-15.91-17.961-20.234 14.418-18.407 45.477.535 36.567"/>
        <path fill="#FFF" d="M43.574 14.913c-8.118 4.686-14.679 16.059-14.646 25.38.018 9.336 5.94 13.416 14.745 8.415 8.145-4.632 14.691-16.059 14.655-25.392-.018-9.327-6.63-13.089-14.754-8.403"/>
        <path fill="#FF481D" d="M42.398 24.685c-2.916 1.689-5.28 5.778-5.277 9.135.018 3.357 2.391 4.71 5.31 3.024 2.928-1.68 5.28-5.778 5.274-9.13-.006-3.353-2.379-4.712-5.307-3.03"/>
        <path fill="#FF755A" d="M40.283 23.444c-2.184 1.707-3.999 4.452-4.857 7.233-2.418 7.84 3.531 10.941 9.021 4.566l.375-.429c-4.386 5.08-9.228 2.694-7.266-3.678.693-2.232 2.157-4.443 3.915-5.81 4.32-3.385 7.647-.094 5.652 5.516 2.898-8.142-1.788-11.343-6.84-7.398"/>
        <path fill="#FF481D" d="M41.965 19.788l4.16 2.415c-4.13-2.397-11.255 5.064-11.228 11.805 0 2.07.729 3.531 1.91 4.218l-4.154-2.421c-1.182-.69-1.911-2.145-1.917-4.215-.018-6.753 7.11-14.196 11.229-11.802"/>
        <path fill="#FFF" d="M14.9 27.303c-4.61-2.205-1.95-10.926.723-14.262l14.76 9.315c-6.903 11.628-5.379 18.92-5.379 18.92-3.903-9.9-10.104-13.973-10.104-13.973zm11.464-19.71s7.575 3.336 18.198 2.682c0 0-6.876 1.797-14.178 12.081l-14.763-9.318c.762-1.35 5.856-7.923 10.743-5.445z"/>
        <path fill="#2680BB" d="M43.383 48.675c8.136-4.695 14.73-16.122 14.709-25.473-.012-4.638-1.66-7.914-4.308-9.46l2.829 1.654c2.649 1.536 4.29 4.809 4.302 9.453.039 9.348-6.567 20.775-14.703 25.47-4.092 2.373-7.812 2.583-10.488 1.026l-2.841-1.65c2.688 1.563 6.402 1.344 10.5-1.02"/>
        <path fill="#2680BB" d="M43.267 11.135C48.25 8.258 52.765 8 56.02 9.893l2.832 1.647c-3.261-1.899-7.767-1.638-12.744 1.227-9.888 5.715-17.895 19.59-17.868 30.951.018 5.64 2.019 9.612 5.235 11.481l-2.823-1.644c-3.225-1.869-5.23-5.85-5.241-11.48-.033-11.365 7.98-25.24 17.856-30.94"/>
        <g transform="translate(27 8.413)">
            <mask id="f" fill="#fff">
                <use xlink:href="#e"/>
            </mask>
            <path fill="#1F6999" d="M19.213 41.907c8.133-4.695 14.742-16.122 14.703-25.473-.024-9.345-6.654-13.134-14.796-8.43-8.142 4.692-14.74 16.125-14.715 25.47.03 9.35 6.672 13.137 14.808 8.433m17.874-27.303c.036 11.358-7.986 25.239-17.862 30.945-9.88 5.706-17.95 1.113-17.985-10.245C1.213 23.943 9.22 10.07 19.108 4.356c9.882-5.697 17.946-1.104 17.979 10.248" mask="url(#f)"/>
        </g>
    </g>
</svg>
