<svg xmlns="http://www.w3.org/2000/svg" xmlns:xlink="http://www.w3.org/1999/xlink" width="249" height="244" viewBox="0 0 249 244">
    <defs>
        <path id="a" d="M0 .242h103.286v132.995H0z"/>
        <path id="c" d="M18.474 4.361c-4.043 2.336-10.575 2.336-14.589.01C1.895 3.207.897 1.687.891.174l.038 11.902c0 1.521.998 3.034 2.992 4.193 4.015 2.335 10.549 2.335 14.591 0 2.027-1.172 3.043-2.706 3.036-4.255L21.512.109c.008 1.544-1.013 3.08-3.038 4.252"/>
        <path id="e" d="M18.474 4.404c-4.043 2.329-10.575 2.329-14.589 0C1.895 3.245.897 1.719.891.207l.038 6.057c0 1.516.998 3.028 2.992 4.197 4.015 2.332 10.549 2.332 14.591 0 2.027-1.182 3.043-2.725 3.036-4.251L21.512.151c.008 1.532-1.013 3.077-3.038 4.253"/>
        <path id="g" d="M.284.495h26.439v13.819H.283z"/>
        <path id="i" d="M18.305 4.745c-4.044 2.336-10.577 2.336-14.588.011C1.725 3.591.727 2.071.722.558l.037 11.901c0 1.521.996 3.037 2.994 4.197 4.014 2.333 10.548 2.333 14.59 0 2.028-1.174 3.043-2.707 3.034-4.257L21.344.495c.007 1.542-1.014 3.081-3.039 4.25"/>
        <path id="k" d="M18.305 4.789c-4.044 2.328-10.577 2.328-14.588 0C1.725 3.63.727 2.103.722.591l.037 6.058c0 1.518.996 3.028 2.994 4.194 4.014 2.335 10.548 2.335 14.59 0 2.028-1.18 3.043-2.722 3.034-4.249l-.033-6.06c.007 1.533-1.014 3.08-3.039 4.255"/>
    </defs>
    <g fill="none" fill-rule="evenodd">
        <g transform="translate(0 -60.242)">
            <mask id="b" fill="#fff">
                <use xlink:href="#a"/>
            </mask>
            <path fill="#0B73DB" d="M0 59.695s2.65 15.825 9.27 18.58c6.615 2.757 18.472-3.033 22.056 15.99 3.582 19.025 3.032 44.113 16.266 38.049 13.234-6.064 22.248-24.441 24.528-34.848 2.876-13.125 2.216-38.492 3.044-53.656.826-15.162 28.122-25.64 28.122-25.64L102.977.242 0 59.695z" mask="url(#b)"/>
        </g>
        <path fill="#000" d="M134.099 243.758l31.857-18.856-27.192-14.291-32.851 17.963z" opacity=".2"/>
        <path fill="#9E594D" d="M138.118 212.844l2.796-1.74-2.558-69.305-2.797 1.74zM162.123 226.052l2.793-1.737-13.522-77.928-2.794 1.736z"/>
        <path fill="#9E594D" d="M148.6 148.123l2.795-1.736-15.906-7.506-2.797 1.738z"/>
        <path fill="#89483F" d="M132.691 140.62l3.281 70.874 2.147 1.35-2.663-68.66 11.46 5.42 13.107 75.53 2.1.918-13.523-77.929z"/>
        <path fill="#702A0B" d="M149.105 170.046l.095 1.605-16.275-8.136-.093-1.607z"/>
        <path fill="#702A0B" d="M150.728 170.696l-1.528.956-.095-1.605 1.366-.962z"/>
        <path fill="#81340D" d="M139.145 157.655l10.228 5.163 1.098 6.267-1.366.962-16.273-8.138z"/>
        <path fill="#702A0B" d="M151.816 185.836l.097 1.607-18.14-9.165-.094-1.608zM153.444 186.486l-1.53.958-.097-1.607 1.365-.966z"/>
        <path fill="#81340D" d="M139.46 172.345l12.626 6.263 1.097 6.262-1.367.966-18.136-9.166z"/>
        <path fill="#702A0B" d="M154.528 202.114l.095 1.603-20.657-10.232-.094-1.605zM156.154 202.763l-1.53.955-.096-1.604 1.368-.966z"/>
        <path fill="#81340D" d="M140.107 187.52l14.693 7.362 1.097 6.266-1.368.966-20.656-10.234z"/>
        <path fill="#702A0B" d="M157.436 218.68l.092 1.605-22.303-11.298-.093-1.607z"/>
        <path fill="#702A0B" d="M159.06 219.326l-1.532.958-.092-1.604 1.368-.966z"/>
        <path fill="#81340D" d="M140.556 203.215l17.294 8.863.954 5.636-1.368.967-22.304-11.301z"/>
        <path fill="#702A0B" d="M150.876 151.966l.191 3.002-9.05 5.631-.294-3.148z"/>
        <path fill="#702A0B" d="M141.769 157.451l.297 3.147-20.804-9.466-.295-3.144z"/>
        <path fill="#81340D" d="M150.97 151.963l-9.187 5.526-20.407-9.429 8.663-5.433z"/>
        <path fill="#702A0B" d="M164.37 221.232c-1.954 2.013-4.942.534-4.942.534s.192 3.295.468 3.764c.513.867 5.17.957 5.041-.774-.134-1.778-.568-3.524-.568-3.524M137.588 212.781c1.209.588 2.706-1.22 2.706-1.22l-2.594-1.322-.112 2.542z"/>
        <path fill="#000" d="M137.126 146.448s13.2 4.863 12.653 5.856c-.546.993-7.492 4.416-9.527 4.368-2.035-.05-13.596-8.488-13.596-8.488s7.94-2.479 10.47-1.736"/>
        <path fill="#151819" d="M131.557 141.95l-2.236 1.014s-4.505 1.614-5.426 2.137c-.51.295-.765.913-.84 1.32-.047.261-.06.996.093 1.205.395.544 1.252 1.165 2.038 1.311 1.515.286 4.722-.324 4.722-.324.414-.189 6.897-2.236 6.897-2.236s.238-.787.303-1.26l.392-3.176-5.943.008z"/>
        <path fill="#303435" d="M123.048 146.37c.038.622 1.253 1.354 2.016 1.588 2.623.796 10.588-1.655 10.963-1.79.868-.309 1.002-.595 1.002-.595s-.178.897-.213.877c0 0-.17.894-.676 1.107-.403.178-3.563.817-4.376 1.001 0 0-4.676 1.017-6.885.42-.764-.207-1.6-.525-1.959-1.32-.111-.24.117-1.373.128-1.288"/>
        <path fill="#0F5160" d="M133.269 104.087s-.25 27.585-2.045 36.562c-.243 1.218-.997 1.463-1.26 1.991-.6 1.212 1.579 2.241 2.155 2.4 2.046.56 4.792.32 5.32-1.586l5.704-39.739-9.874.372z"/>
        <path fill="#151819" d="M143.356 147.61l-3.908 2.629s-1.802 1.2-2.654 1.841c-.467.349-.65.999-.671 1.411-.012.262.065.993.244 1.188.457.488 1.403.867 2.185 1.046 2.303.525 4.64-.906 4.64-.906.388-.243 6.566-3.083 6.566-3.083s.145-.812.145-1.291v-3.194l-6.547.36z"/>
        <path fill="#176572" d="M137.741 98.676l5.225 47.293c-.164 1.665-1.878 2.491-1.017 2.725.893.24 1.785.648 2.802 1.541 2.527 2.224 4.923.084 4.923.084.386-.22.447-1.244.483-1.587l-1.61-43.716-10.806-6.34z"/>
        <path fill="#303435" d="M136.106 153.442c.125.612 1.745 1.317 2.513 1.52 3.845.998 9.992-3.16 10.347-3.334.822-.412.919-.723.919-.723s-.06.915-.1.9c0 0-.06.904-.533 1.184-.384.23-4.188 2.045-4.974 2.319 0 0-3.353 1.47-5.883.703-.766-.233-1.8-.533-2.255-1.282-.138-.225-.048-1.374-.034-1.287"/>
        <path fill="#B5B5B5" d="M134.155 75.951s-.457-.146-1.126 1.022c-.669 1.164-1.193 3.364-1.127 3.772.066.407.577 1.565 1.303 1.691.702.122 4.18.231 4.433-2.627.086-.994-.522-4.24-3.483-3.858"/>
        <path fill="#E2C2AC" d="M120.293 67.378l10.6 7.923 11.834 2.898s2.052 3.407.188 4.303c-1.864.898-9.572-.91-12.938-2.487-3.544-1.666-11.376-10.972-11.376-10.972l.786-1.155.906-.51z"/>
        <path fill="#E2C2AC" d="M113.327 65.292c.792-.125 2.995.42 2.18.16-.486-.153-1.148-.602-1.804-.673-.916-.295-.138-.887-.138-.887s.886-.277 2.704.298c3.207 1.02 4.945 4.454 4.945 4.454-.612 2.568-3.29 1.467-3.687 1.227-.613-.375-1.676-1.14-2.126-1.345-.673-.308-.737-.237-1.785-.793-1.072-.575-1.438-1.063-1.206-1.837.271-.898.781-.583.917-.604"/>
        <path fill="#E5CAB7" d="M120.016 66.96s.479-1.075-.4-2c-1.108-1.17-2.917-1.208-4.24-.7-.783.3-1.757.598-1.757.598s-.09 1.4 1.33.877c.978-.36 1.68-.148 1.68-.148s.457 1.487 1.542 1.706c1.084.22 1.845-.333 1.845-.333"/>
        <path fill="#B23263" d="M144.045 81.47c.642-2.764-2.165-3.46-3.602-3.874-1.592-.45-5.14-1.606-6.378-1.834 0 0 3.668.568 2.297 4.177-1.073 2.817-3.219 2.487-3.219 2.487 1.805.493 3.631 1.087 5.305.975 2.364-.155 5.348-.848 5.597-1.93"/>
        <path fill="#D34876" d="M136.019 82.322c-.586 3.107-.63 6.591-1.92 13.43-1.184 6.267-2.093 14.03-1.483 14.85 0 0 8.356 4.224 13.163 3.483 3.35-.513 4.258-.385 4.258-.385 1.199.109-.092-7.797 1.198-14.507 1.466-7.623 1.129-13.901.994-15.615-.265-3.31-8.536-7.344-8.536-7.344l-2.712.265s-4.103 1.257-4.962 5.823"/>
        <path fill="#DBB8A1" d="M142.634 76.697l.198-5.094 6.022.53s-1.656 2.514-1.155 4.916c.178.852.41 2.084 1.384 3.212.02.104-1.094-.13-3.515 1.188-2.265 1.227-5.641.588-6.315-1.306-.453-1.273 1.45-2.177 3.38-3.446"/>
        <path fill="#E8C5AC" d="M147.457 63.2l-.002.004 4.394 2.45-4.304 7.992c-.359.511-.61 1.021-.95 1.434-.379.448-.869.796-1.744.92 0 0-1.127.068-2.402.07-.52-.005-2.192.063-2.932-.766-.273-.315-.998-1.085-.94-1.954.144-2.317 3.55-10.694 3.55-10.694l1.225-2.736 4.105 3.28z"/>
        <path fill="#2A937F" d="M144.661 59.186c-1.247.267-1.935 1.232-2.177 2.108-.217.797-.409 1.334-.357 1.362 0 0 1.561-1.158 2.101.403.525 1.508.635 2.491.752 2.515 0 0 .874-1.304.844-1.396-.023-.088.228 1.95.228 1.95.042.083.684-.409.803-.303 1.21 1.086.485 2.9.06 3.565l-.378.7c-.204.357-.488.742-.116.894.401.168.45.004.768-.327 0 0 1.21-1.44 2.106-.272.596.777-.946 2.228-1.05 2.297l-1.113 2.754c.104-.039 1.51-.67 2.207-1.136 1.203-.8 2.485-1.64 2.982-2.033 2.506-1.99 3.032-5.127 2.321-7.64-.215-.783-1.633-3.234-1.452-3.56.024-.04-.576.02-1.114-.297-1.728-1.007-.529-1.359-.529-1.359-.405-.325-2.048-.044-2.164-.017-.91.15-.498-.675-.498-.675-.746-.036-4.224.467-4.224.467"/>
        <path fill="#E8C5AC" d="M149.368 70.048c-1.143-.623-2.055.74-2.055.74l-1.08 1.96s-.212.528.167.852c.576.487 1.17.076 1.8-.385.042-.034.913-.751.967-.79.744-.606 1.278-1.774.201-2.377"/>
        <path fill="#EDEFEF" d="M133.404 73.059a.795.795 0 0 1-1.015.48L80.565 54.998l.533-1.497 51.825 18.544c.413.147.627.6.481 1.015"/>
        <path fill="#E1E5E5" d="M72.612 45.596c-.38-.042-1.108-.276-1.483-.125-.553.225-.392.704-.829 1.049-.766.607-1.978.43-1.7 1.707.065.282.73.348.643.91-.07.46-.712.702-1.041.93-.698.486-1.516.75-1.567 1.737 1.653-1.522.417 1.856.438 2.212.06 1.03.431.55.93 1.14.431.514.566 1.127.825 1.717.618.205 1.352.018 1.98.215.628.195 1.097.636 1.556.936-.19-.248-.243-.534-.323-.883.618.154 1.174.659 1.815.82.6.15 1.356.042 1.967.18-.106-.107-.118-.215-.311-.348-.008-.081.02-.367-.005-.422.764.102 1.027.142 1.575-.275.144-.11.026-.6.239-.762.231-.175.865-.148 1.148-.154.153-.822.303-1.041.8-1.62.554-.641.985-.887.603-1.833-.03.39-.23.572-.528.81-.041-.82 1.062-1.73.877-2.526-.103-.444-.626-.514-.843-.918-.288-.538-.181-1.118-.213-1.71-1.03-.218-1.107-1.584-1.791-2.228.48.336.618 1.8-.34 1.614-.375-1.396-1.178-1.29-2.43-1.626-.335-.09-.638-.32-.924-.407-.295-.095-.512.165-.81.06-.519-.18-.44-.87-1.258-.754.422.158.553.408.654.785l.346-.231z"/>
        <path fill="#EDEFEF" d="M76.44 51.784a2.803 2.803 0 1 1-5.607.002 2.803 2.803 0 0 1 5.607-.002"/>
        <path fill="#8AADAC" d="M75.154 51.784a1.517 1.517 0 1 1-3.034.002 1.517 1.517 0 0 1 3.034-.002"/>
        <path fill="#FFF" d="M82.687 54.89a.54.54 0 0 1-.69.326l-8.408-2.906a.54.54 0 0 1 .366-1.016l8.407 2.907c.28.1.424.408.325.688"/>
        <path fill="#1F8DE8" d="M69.537 45.71s-.645 1.042-1.537.793c-.895-.248-2.334-.743-2.432.05-.099.795.595 1.14 1.637.795 1.042-.347 2.034-.845 2.332-1.638M69.786 47.992s-.15-.396.843-.645c.992-.248.2-1.39 1.29-1.29 1.091.1 2.233.198 3.076.943.844.744 1.49 1.042 1.985 1.19.497.15 1.29.745 1.34 1.44.05.694-.893.842-1.985-.398-1.09-1.24-1.14-1.636-2.38-2.232-1.24-.596-1.738-.894-1.64.347.1 1.24-1.092 1.737-1.092 1.042 0-.695-1.637.447-1.437-.397M77.427 55.138s-1.588.396-2.034 1.042c-.446.645-.893 1.191-.595 1.39.297.198-.051.198-1.093-.398-1.042-.596-2.084-.794-1.934-.397.148.397-.497-.446-1.786-.397-1.291.05-.944-.744.395-.744 1.34 0 1.837.695 3.87.248 2.035-.447 4.467-1.687 3.177-.744M68.645 44.866s-1.737-.396-1.837-1.438c-.1-1.042.894-1.54 1.24-.795.348.745-.247 1.042.597 2.233"/>
        <path fill="#F2D3BD" d="M125.03 69.782s-1.102-1.29-1.554-1.95c-.449-.668-1.036-1.55-1.798-1.867a8.725 8.725 0 0 1-1.424-.774s-.918.416-.334.89c.583.47 1.593 1.239 1.714 1.672.12.434.221 1.2.661 1.576.438.374 3.26 1.153 2.734.453"/>
        <path fill="#B23263" d="M140.908 79.244s-.796.27-1.445 1.438c-.646 1.168-1.043 3.041-.77 4.252.203.887.466 1.76 1.583 1.911 1.355.184 3.896-1.802 3.558-4.046-.335-2.239-1.396-3.663-2.926-3.555"/>
        <path fill="#F2D3BD" d="M118.745 68.76s-.959-.252-2.409-.466c-1.102-.162-.623-1.544-.177-1.652.025-.137.786-.214 1.122-.185l1.702.156s-.773-.393-1.733-.732c-.633-.22-.116-.737-.05-.779.477-.324 1.628.067 3.287.707 2.187.846 5.106 4.513 5.106 4.513s-.767 1.614-1.777 2.007c-1.014.39-2.934-.555-4.374-1.83-.584-.522-1.326-.59-2.686-.983-.592-.17-.778-.559-.377-.81l2.366.053z"/>
        <path fill="#F2D3BD" d="M122.505 67.718s10.69 9.195 12.578 10.114c1.483.723 15.237 3.626 15.237 3.626s1.31 3.362-.558 4.242c-1.874.88-12.565-1.793-16.387-3.51-4.548-2.043-9.945-9.974-9.945-9.974l-.541-2.802-.384-1.697z"/>
        <path fill="#E26193" d="M151.285 84.165c-1.207 2.578-4.373 2.91-6.068 3.132-1.409.183-4.705-.36-4.79-.406 0 0 2.416-.555 2.497-4.24.05-2.514-1.815-3.408-1.815-3.408 1.291.166 5.53.56 7.058.534 2.086-.037 4.162 2.15 3.118 4.388"/>
        <path fill="#89483F" d="M108.987 229.63l2.613-.539 13.978-78.906-2.675.824zM133.889 241.843l2.676-.828 3.21-87.322-2.674.827z"/>
        <path fill="#AA645B" d="M137.1 154.52l2.676-.827-15.942-7.3-2.671.827z"/>
        <path fill="#9E594D" d="M121.162 147.22l-14.307 80.922 2.131 1.487 13.917-78.62 11.858 5.43-3.114 84.63 2.242.774 3.211-87.323z"/>
        <path fill="#702A0B" d="M132.062 177.627l-.011 1.606-15.722-9.155.009-1.61z"/>
        <path fill="#702A0B" d="M134.001 178.094l-1.95 1.14.011-1.607 1.992-1.167z"/>
        <path fill="#81340D" d="M122.83 164.95l11.396 6.265-.172 5.245-1.993 1.167-15.723-9.159z"/>
        <path fill="#702A0B" d="M131.353 195.174l-.01 1.609-17.825-10.429.014-1.61zM133.293 195.64l-1.949 1.144.01-1.61 1.994-1.166z"/>
        <path fill="#81340D" d="M120.019 181.418l13.499 7.348-.17 5.242-1.995 1.166-17.821-10.43z"/>
        <path fill="#702A0B" d="M130.675 213.678l-.008 1.609-20.25-11.981.012-1.61z"/>
        <path fill="#702A0B" d="M132.615 214.147l-1.948 1.14.008-1.61 1.994-1.163z"/>
        <path fill="#81340D" d="M116.998 197.855l15.841 9.413-.17 5.246-1.994 1.164-20.246-11.981z"/>
        <path fill="#702A0B" d="M129.997 233.244l-.007 1.611-22.767-13.532.007-1.607zM131.937 233.715l-1.946 1.141.007-1.612 1.994-1.165z"/>
        <path fill="#81340D" d="M113.803 215.873l18.36 10.966-.172 5.24-1.994 1.165-22.766-13.528z"/>
        <path fill="#702A0B" d="M131.783 237.63c1.954 2.013 4.914.413 4.914.413s.074 3.16-.118 3.67c-.474 1.242-4.71 1.081-4.932-.645-.219-1.722.136-3.439.136-3.439M107.389 225.06c1.953 2.01 4.84.508 4.84.508s-.145 3.282-.424 3.752c-.51.865-5.166.957-5.04-.778.136-1.775.624-3.482.624-3.482"/>
        <path fill="#000" d="M226.403 213.143c-.937-.578-1.935-2.216-3.727-3.094-1.79-.88-.909-2.67-2.987-3.12-2.074-.45-13.85 3.29-17.09 5.685-3.24 2.388-2.758 6.658 2.541 8.938 5.3 2.28 34.758-.082 21.263-8.41"/>
        <path fill="#000" d="M224.737 214.874c0 3.127-4.705 5.665-10.514 5.665-5.804 0-10.512-2.538-10.512-5.665 0-3.128 4.708-5.664 10.512-5.664 5.81 0 10.514 2.536 10.514 5.664"/>
        <path fill="#E2E2E2" d="M219.996 193.342l.373-.222c-.137.076-.209.245-.209.487-.008.474.324 1.059.746 1.303.204.116.393.131.54.049l-.384.219c-.134.075-.323.069-.53-.056-.423-.243-.758-.819-.758-1.301 0-.242.091-.405.222-.479"/>
        <path fill="#C1C1C1" d="M220.531 195.122c.42.245.754.048.754-.428s-.334-1.062-.754-1.307c-.412-.238-.757-.045-.757.434 0 .482.335 1.058.757 1.301m1.136-.2l-.006 2.304-2.268-1.303.01-2.309c0-.72.51-1.014 1.128-.646.626.363 1.136 1.231 1.136 1.953"/>
        <path fill="#E2E2E2" d="M220.104 192.673c.208-.124.493-.108.803.07.62.367 1.135 1.24 1.135 1.951l-.011 2.323-.37.21.006-2.306c0-.722-.51-1.59-1.135-1.953-.312-.185-.594-.199-.801-.074l.373-.221z"/>
        <path fill="#C1C1C1" d="M203.751 213.175l.038.779c0 1.552 1.017 3.102 3.051 4.282 4.072 2.366 10.718 2.366 14.833 0 2.072-1.201 3.103-2.766 3.103-4.329l-.045-.794c.014 1.562-1.026 3.127-3.086 4.327-4.116 2.374-10.76 2.374-14.843 0-2.026-1.171-3.043-2.72-3.05-4.265"/>
        <path fill="#AAA9A9" d="M206.853 208.849c-4.113 2.368-4.136 6.222-.051 8.59 4.082 2.375 10.728 2.375 14.843 0 4.106-2.368 4.129-6.222.045-8.59-4.086-2.374-10.73-2.374-14.837 0"/>
        <g transform="translate(203 200.758)">
            <mask id="d" fill="#fff">
                <use xlink:href="#c"/>
            </mask>
            <path fill="#C1C1C1" d="M.89.175l.039 11.9c0 1.522.998 3.036 2.992 4.195 4.015 2.334 10.549 2.334 14.592 0 2.026-1.172 3.043-2.707 3.035-4.256L21.512.109c.009 1.545-1.013 3.08-3.038 4.253-4.043 2.334-10.575 2.334-14.59.009C1.895 3.207.898 1.688.892.175" mask="url(#d)"/>
        </g>
        <path fill="#E2E2E2" d="M203.89 203.965l.039 6.057c0 1.516.998 3.028 2.992 4.197 4.015 2.332 10.549 2.332 14.592 0 2.026-1.182 3.043-2.725 3.035-4.251l-.036-6.06c.009 1.534-1.013 3.078-3.038 4.254-4.043 2.329-10.575 2.329-14.59 0-1.99-1.159-2.987-2.685-2.993-4.197"/>
        <g transform="translate(203 203.758)">
            <mask id="f" fill="#fff">
                <use xlink:href="#e"/>
            </mask>
            <path fill="#E2E2E2" d="M.89.207L.93 6.264c0 1.516.998 3.028 2.992 4.197 4.015 2.332 10.549 2.332 14.592 0 2.026-1.182 3.043-2.725 3.035-4.251L21.512.15c.009 1.534-1.013 3.078-3.038 4.254-4.043 2.329-10.575 2.329-14.59 0C1.895 3.245.898 1.719.892.207" mask="url(#f)"/>
        </g>
        <g>
            <path fill="#E2E2E2" d="M207.592 196.954c3.63-2.097 9.486-2.097 13.092 0 3.595 2.085 3.58 5.484-.041 7.571-3.623 2.095-9.495 2.095-13.088 0-3.605-2.087-3.583-5.486.037-7.57m-.693 8.185c4.009 2.326 10.535 2.326 14.583 0 4.042-2.34 4.06-6.119.045-8.454-4.012-2.335-10.541-2.335-14.584 0-4.033 2.335-4.061 6.114-.044 8.454"/>
            <path fill="#E2E2E2" d="M220.104 192.673c.208-.124.493-.108.803.07.62.367 1.135 1.24 1.135 1.951l-.011 2.323-.37.21.006-2.306c0-.722-.51-1.59-1.135-1.953-.312-.185-.594-.199-.801-.074l.373-.221z"/>
            <path fill="#E2E2E2" d="M220.104 192.673c.208-.124.493-.108.803.07.62.367 1.135 1.24 1.135 1.951l-.011 2.323-.37.21.006-2.306c0-.722-.51-1.59-1.135-1.953-.312-.185-.594-.199-.801-.074l.373-.221z"/>
            <path fill="#999" d="M204.694 200.085l.024.717c.01 1.385.922 2.772 2.747 3.834 3.664 2.131 9.635 2.131 13.332 0 1.848-1.076 2.78-2.487 2.772-3.886l-.024-.718c0 1.41-.93 2.816-2.78 3.887-3.696 2.138-9.669 2.138-13.335.007-1.82-1.06-2.737-2.447-2.737-3.84"/>
            <path fill="#0B73DB" d="M208.6 196.995c-3.185 1.845-3.211 4.832-.032 6.676 3.172 1.836 8.32 1.836 11.512-.013 3.188-1.83 3.207-4.818.04-6.663-3.168-1.842-8.331-1.842-11.52 0"/>
            <path fill="#1F8DE8" d="M209.21 197.31c2.758-1.59 7.22-1.59 9.965 0 2.741 1.602 2.736 4.183-.032 5.777-2.759 1.6-7.23 1.6-9.97 0-2.753-1.594-2.738-4.175.036-5.776m-1.837 6.94c3.663 2.133 9.633 2.133 13.327 0 3.686-2.126 3.71-5.581.04-7.721-3.67-2.132-9.642-2.132-13.332 0-3.695 2.14-3.709 5.595-.035 7.72"/>
            <path fill="#E2E2E2" d="M206.412 201.86l.372-.22c-.137.083-.223.25-.223.496 0 .472.337 1.048.751 1.292.214.12.4.139.537.056l-.372.222c-.136.075-.337.06-.54-.057-.413-.242-.752-.822-.752-1.301 0-.241.086-.406.227-.487"/>
            <path fill="#E2E2E2" d="M206.517 201.2c.205-.134.49-.113.802.075.62.355 1.13 1.23 1.13 1.944l-.01 2.318-.361.183-.003-2.277c0-.717-.507-1.592-1.132-1.95-.311-.18-.598-.206-.797-.079l.37-.214z"/>
            <path fill="#C1C1C1" d="M206.938 203.649c.42.233.759.05.759-.435 0-.483-.333-1.056-.754-1.3-.418-.238-.75-.048-.757.434 0 .479.339 1.059.752 1.3m1.137-.204l.003 2.29-1.135.059-1.143-.653.009-3.004c0-.718.512-1.01 1.134-.643.625.359 1.132 1.234 1.132 1.95"/>
            <path fill="#E2E2E2" d="M220.104 192.673c.208-.124.493-.108.803.07.62.367 1.135 1.24 1.135 1.951l-.011 2.323-.035.023-.347-.279.018-1.84c0-.722-.51-1.59-1.135-1.953-.312-.185-.594-.199-.801-.074l.373-.221z"/>
            <path fill="#BC3E3B" d="M219.61 206.274c.311-.111.64.11.652.45l.21 5.878a.65.65 0 0 0 .741.633.647.647 0 0 1-.873-.597l-.205-5.878a.502.502 0 0 0-.552-.481c.02 0 .02-.005.027-.005M223.389 206.219l.013.548c.009.215.199.356.39.356a.369.369 0 0 1-.52-.328l-.023-.545c-.001-.215-.19-.35-.38-.346a.37.37 0 0 1 .52.315M216.23 207.255a.948.948 0 0 1 1.109.923v.233a.685.685 0 0 0 .784.657c-.013 0-.028.007-.054.018a.681.681 0 0 1-.86-.633v-.238a.966.966 0 0 0-1.106-.932c-.031 0-.061.016-.09.022.077-.022.143-.045.218-.05M211.848 208.33a.625.625 0 0 1 .605.598l.046 1.144a1.28 1.28 0 0 0 1.389 1.222c.062 0 .12-.027.18-.036a.975.975 0 0 1-.307.064 1.273 1.273 0 0 1-1.391-1.21l-.056-1.153a.61.61 0 0 0-.594-.593h-.092a.71.71 0 0 1 .22-.036"/>
            <path fill="#F2665F" d="M223.531 200.366c-.014.09-.032.177-.045.265.013-.088.031-.175.045-.265M223.531 200.366c0-.089.008-.175.008-.264 0 .09-.008.175-.008.264"/>
            <path fill="#0B73DB" d="M209.904 205.66c3.53 1.006 7.898.691 10.893-1.024 1.768-1.033 2.69-2.36 2.772-3.7v-.186l-.024-.718c0 .02.102-1.785-1.9-3.27v-.01c2.016 1.224 2.978 2.807 2.866 4.383l.044 4.78c.008.436-.199.868-.56 1.132a.373.373 0 0 1-.594-.28l-.013-.548a.37.37 0 0 0-.547-.305c-.323.182-.51.525-.51.896l.025 4.844a1.675 1.675 0 0 1-.92 1.521.66.66 0 0 1-.964-.574l-.21-5.878a.489.489 0 0 0-.653-.45.896.896 0 0 0-.61.884l.023.783c.016.518-.332.966-.82 1.113a.685.685 0 0 1-.863-.642v-.233a.95.95 0 0 0-1.109-.923 1.241 1.241 0 0 0-1.055 1.255l.023 1.32a1.443 1.443 0 0 1-1.31 1.464 1.28 1.28 0 0 1-1.389-1.222l-.046-1.144a.627.627 0 0 0-.606-.598.55.55 0 0 0-.565.568l.101 4.907c0 .462-.39.83-.864.772a1.02 1.02 0 0 1-.89-1.009l-.14-7.328-1.04-1.11s.575.27 1.455.53"/>
            <g transform="translate(222 220.758)">
                <mask id="h" fill="#fff">
                    <use xlink:href="#g"/>
                </mask>
                <path fill="#000" d="M26.121 5.053c-.496-.982-1.935-2.215-3.727-3.093-1.79-.881-8.03-.952-10.109-1.402-2.075-.45-6.729 1.573-9.97 3.966-3.239 2.388-2.756 6.659 2.542 8.939 5.301 2.279 25.598.146 21.264-8.41" mask="url(#h)"/>
            </g>
            <path fill="#000" d="M246.595 227.374c0 3.127-4.706 5.665-10.514 5.665-5.805 0-10.512-2.538-10.512-5.665 0-3.128 4.707-5.665 10.512-5.665 5.808 0 10.514 2.537 10.514 5.665"/>
            <path fill="#E2E2E2" d="M241.826 205.728l.374-.223c-.138.076-.21.245-.21.488-.01.473.323 1.06.744 1.3.206.117.396.133.54.049l-.38.222c-.135.075-.325.068-.534-.057-.419-.243-.755-.818-.755-1.3 0-.242.09-.406.221-.48"/>
            <path fill="#C1C1C1" d="M242.36 207.507c.42.245.753.048.753-.429 0-.476-.334-1.062-.753-1.307-.409-.235-.755-.043-.755.435 0 .483.337 1.058.756 1.301m1.138-.202l-.008 2.307-2.267-1.303.01-2.311c0-.72.51-1.014 1.126-.645.63.361 1.138 1.231 1.138 1.952"/>
            <path fill="#E2E2E2" d="M241.934 205.058c.206-.126.493-.108.8.072.625.364 1.14 1.239 1.14 1.949l-.012 2.322-.371.212.007-2.308c0-.721-.508-1.591-1.137-1.952-.313-.184-.594-.2-.8-.075l.373-.22z"/>
            <path fill="#C1C1C1" d="M225.581 225.56l.038.78c0 1.552 1.018 3.1 3.051 4.282 4.07 2.365 10.718 2.365 14.835 0 2.073-1.2 3.102-2.767 3.102-4.331l-.046-.793c.015 1.56-1.023 3.13-3.086 4.328-4.116 2.373-10.759 2.373-14.842 0-2.027-1.173-3.043-2.721-3.052-4.265"/>
            <path fill="#AAA9A9" d="M228.684 221.234c-4.111 2.368-4.136 6.223-.051 8.592 4.083 2.373 10.727 2.373 14.842 0 4.107-2.37 4.129-6.224.046-8.592-4.087-2.375-10.73-2.375-14.837 0"/>
        </g>
        <g transform="translate(225 212.758)">
            <mask id="j" fill="#fff">
                <use xlink:href="#i"/>
            </mask>
            <path fill="#C1C1C1" d="M.722.559l.037 11.9c0 1.522.996 3.038 2.994 4.198 4.014 2.332 10.548 2.332 14.59 0 2.027-1.174 3.043-2.708 3.034-4.258L21.345.495c.006 1.543-1.015 3.082-3.04 4.25-4.043 2.336-10.576 2.336-14.588.01C1.726 3.593.727 2.073.722.56" mask="url(#j)"/>
        </g>
        <path fill="#E2E2E2" d="M225.722 216.35l.037 6.058c0 1.517.996 3.027 2.994 4.194 4.014 2.334 10.548 2.334 14.59 0 2.027-1.181 3.043-2.723 3.034-4.25l-.032-6.06c.006 1.534-1.015 3.079-3.04 4.255-4.043 2.328-10.576 2.328-14.588 0-1.991-1.16-2.99-2.685-2.995-4.197"/>
        <g transform="translate(225 215.758)">
            <mask id="l" fill="#fff">
                <use xlink:href="#k"/>
            </mask>
            <path fill="#E2E2E2" d="M.722.592L.759 6.65c0 1.517.996 3.027 2.994 4.194 4.014 2.334 10.548 2.334 14.59 0 2.027-1.181 3.043-2.723 3.034-4.25l-.032-6.06c.006 1.534-1.015 3.079-3.04 4.255-4.043 2.328-10.576 2.328-14.588 0C1.726 3.629.727 2.104.722.592" mask="url(#l)"/>
        </g>
        <g>
            <path fill="#E2E2E2" d="M229.422 209.339c3.629-2.097 9.489-2.097 13.092 0 3.594 2.084 3.58 5.485-.042 7.57-3.622 2.098-9.496 2.098-13.086 0-3.607-2.085-3.583-5.486.036-7.57m-.692 8.185c4.008 2.327 10.535 2.327 14.582 0 4.042-2.34 4.062-6.118.047-8.453-4.016-2.335-10.541-2.335-14.583 0-4.037 2.335-4.061 6.113-.046 8.453"/>
            <path fill="#E2E2E2" d="M241.934 205.058c.206-.126.493-.108.8.072.625.364 1.14 1.239 1.14 1.949l-.012 2.322-.371.212.007-2.308c0-.721-.508-1.591-1.137-1.952-.313-.184-.594-.2-.8-.075l.373-.22z"/>
            <path fill="#E2E2E2" d="M241.934 205.058c.206-.126.493-.108.8.072.625.364 1.14 1.239 1.14 1.949l-.012 2.322-.371.212.007-2.308c0-.721-.508-1.591-1.137-1.952-.313-.184-.594-.2-.8-.075l.373-.22z"/>
            <path fill="#999" d="M226.524 212.469l.025.717c.009 1.386.923 2.772 2.746 3.834 3.665 2.133 9.637 2.133 13.333 0 1.849-1.075 2.78-2.486 2.772-3.885l-.022-.717c0 1.41-.932 2.814-2.782 3.888-3.696 2.135-9.67 2.135-13.334.006-1.822-1.062-2.738-2.448-2.738-3.843"/>
            <path fill="#DDB612" d="M230.43 209.381c-3.185 1.843-3.213 4.831-.032 6.674 3.173 1.837 8.32 1.837 11.51-.01 3.19-1.833 3.209-4.821.043-6.664-3.17-1.843-8.33-1.843-11.521 0"/>
            <path fill="#FFD833" d="M231.04 209.697c2.76-1.59 7.222-1.59 9.965 0 2.74 1.6 2.737 4.181-.03 5.773-2.76 1.602-7.23 1.602-9.972 0-2.75-1.592-2.737-4.173.037-5.773m-1.837 6.941c3.664 2.13 9.633 2.13 13.326 0 3.687-2.126 3.712-5.585.04-7.724-3.67-2.13-9.643-2.13-13.33 0-3.696 2.14-3.713 5.598-.036 7.724"/>
            <path fill="#E2E2E2" d="M228.242 214.246l.373-.223c-.137.085-.223.25-.223.496 0 .474.337 1.047.75 1.292.21.122.4.141.537.057l-.372.224c-.136.073-.336.06-.54-.059-.412-.24-.752-.82-.752-1.3 0-.244.091-.408.227-.487"/>
            <path fill="#E2E2E2" d="M228.348 213.583c.203-.132.489-.11.803.078.619.354 1.129 1.228 1.129 1.942l-.01 2.318-.36.185-.005-2.278c0-.718-.505-1.59-1.13-1.95-.313-.18-.6-.205-.798-.08l.37-.215z"/>
            <path fill="#C1C1C1" d="M228.768 216.033c.418.235.76.05.76-.435 0-.482-.334-1.057-.752-1.298-.42-.24-.752-.047-.76.433 0 .48.34 1.06.752 1.3m1.137-.205l.005 2.291-1.134.058-1.145-.654.006-3.004c0-.718.512-1.008 1.139-.64.624.358 1.129 1.231 1.129 1.95"/>
            <path fill="#E2E2E2" d="M241.934 205.058c.206-.126.493-.108.8.072.625.364 1.14 1.239 1.14 1.949l-.012 2.322-.035.023-.348-.278.019-1.841c0-.721-.508-1.591-1.137-1.952-.313-.184-.594-.2-.8-.075l.373-.22z"/>
            <path fill="#BC3E3B" d="M241.44 218.656a.492.492 0 0 1 .654.452l.208 5.88a.649.649 0 0 0 .743.631.647.647 0 0 1-.875-.596l-.203-5.879a.502.502 0 0 0-.553-.48c.018 0 .018-.008.026-.008M245.218 218.604l.016.549c.007.213.195.354.388.354a.367.367 0 0 1-.518-.326l-.024-.547c-.001-.215-.19-.351-.38-.345a.368.368 0 0 1 .518.315M238.06 219.638a.95.95 0 0 1 1.109.922v.237a.685.685 0 0 0 .786.656c-.015 0-.03.007-.056.017a.68.68 0 0 1-.86-.632v-.236a.969.969 0 0 0-1.105-.936c-.03 0-.061.019-.09.025a.934.934 0 0 1 .217-.053M233.678 220.713a.633.633 0 0 1 .607.603l.045 1.14a1.28 1.28 0 0 0 1.388 1.224c.06 0 .124-.028.18-.038a.92.92 0 0 1-.31.067 1.277 1.277 0 0 1-1.39-1.212l-.051-1.152a.614.614 0 0 0-.594-.595h-.094a.75.75 0 0 1 .219-.037"/>
            <path fill="#F2665F" d="M245.361 212.751c-.013.093-.03.176-.045.265.014-.089.032-.172.045-.265M245.316 213.024c-.013.086-.038.177-.06.262.022-.085.047-.176.06-.262M245.361 212.751c0-.088.01-.174.01-.267 0 .093-.01.18-.01.267"/>
            <path fill="#DDB612" d="M231.734 218.044c3.53 1.007 7.898.693 10.894-1.024 1.77-1.03 2.689-2.358 2.772-3.7v-.185l-.023-.717c0 .02.101-1.788-1.903-3.272v-.009c2.018 1.222 2.98 2.805 2.87 4.384l.042 4.778c.009.438-.198.87-.56 1.135a.373.373 0 0 1-.592-.282l-.017-.548a.37.37 0 0 0-.547-.305 1.016 1.016 0 0 0-.506.896l.025 4.845a1.684 1.684 0 0 1-.921 1.521.661.661 0 0 1-.965-.573l-.208-5.88a.492.492 0 0 0-.654-.452.906.906 0 0 0-.614.885l.027.783a1.14 1.14 0 0 1-.822 1.115.685.685 0 0 1-.863-.642v-.237a.951.951 0 0 0-1.109-.922 1.243 1.243 0 0 0-1.054 1.257l.025 1.32a1.45 1.45 0 0 1-1.314 1.465 1.28 1.28 0 0 1-1.387-1.224l-.045-1.14a.634.634 0 0 0-.607-.603.558.558 0 0 0-.566.572l.103 4.905a.77.77 0 0 1-.865.773 1.02 1.02 0 0 1-.89-1.01l-.144-7.327-1.037-1.112s.576.272 1.455.53"/>
        </g>
    </g>
</svg>
