<svg xmlns="http://www.w3.org/2000/svg" xmlns:xlink="http://www.w3.org/1999/xlink" width="113" height="250" viewBox="0 0 113 250">
    <defs>
        <path id="a" d="M.818 1.233c-.098.053-.173.1-.214.128l.819.49c.041-.024.114-.071.211-.127.356-.199 1.034-.496 1.632-.297.072.022.14.052.204.089l-.78-.471a1.352 1.352 0 0 0-.241-.112 1.366 1.366 0 0 0-.423-.064c-.472 0-.936.211-1.208.364m2.688.305l-.036-.022"/>
        <path id="c" d="M.531.433A2.825 2.825 0 0 0 .324.57l.834.464c.04-.027.111-.079.206-.136C1.712.687 2.38.368 2.985.545c.088.024.168.057.245.101L2.395.183A1.258 1.258 0 0 0 2.151.08a1.36 1.36 0 0 0-.374-.051C1.288.029.808.265.531.433"/>
        <path id="e" d="M.038 13.517c-.01 1.696 1.107 3.381 3.328 4.667 4.435 2.559 11.603 2.559 16.006 0 2.189-1.273 3.285-2.933 3.285-4.602l.04-13.055c-.007 1.662-1.103 3.328-3.284 4.605C15.01 7.681 7.844 7.681 3.409 5.121 1.185 3.837.068 2.153.076.455"/>
        <path id="g" d="M.038 7.441c-.01 1.675 1.107 3.365 3.328 4.661 4.435 2.559 11.603 2.559 16.006 0 2.189-1.283 3.285-2.939 3.285-4.603l.04-6.644c-.007 1.657-1.103 3.332-3.284 4.605-4.403 2.552-11.569 2.552-16.004 0C1.185 4.167.068 2.475.076.792"/>
        <path id="i" d="M0 .766h112.448V63H0z"/>
    </defs>
    <g fill="none" fill-rule="evenodd">
        <path fill="#E55433" d="M62.51-72.273l41.485 24.13-.052 78.328S86.886 21.56 86.212 20.81c-.674-.75.074-9.73.074-14.158 0-2.772-7.715-5.095-7.715-3.147 0 1.28-.298 24.049-.524 25.396-.077.45-8.691-4.045-8.766-4.495-.324-1.951.45-29.291.45-31.913 0-2.623-7.416-5.17-7.416-5.17l.196-59.597z"/>
        <path fill="#6D4D37" d="M79.802 52.568c-1.07-.058-3.926.97-2.875.513.625-.272 1.442-.96 2.307-1.145 1.175-.516.061-1.2.061-1.2s-1.218-.245-3.557.77c-4.127 1.798-5.968 6.604-5.968 6.604 1.164 3.333 4.581 1.5 5.072 1.126.765-.583 2.073-1.745 2.646-2.081.853-.503.946-.417 2.266-1.298 1.348-.914 1.769-1.614 1.352-2.612-.484-1.157-1.121-.667-1.304-.677"/>
        <path fill="#6D4D37" d="M73.469 57.925s-1.437.01-2.042-1.428c-.767-1.814.078-3.856 1.291-5.088a38.007 38.007 0 0 0 1.533-1.675s1.609.586.33 1.92c-.883.916-.99 1.809-.99 1.809s1.442 1.238 1.154 2.56c-.284 1.32-1.276 1.902-1.276 1.902"/>
        <path fill="#47C9B6" d="M70.203 57.027c-4.86 4.064-11.146 9.766-11.146 9.766-6.97-3.784-11.168-6.013-13.124-6.611-2.668-.821-6.144 1.22-5.63 4.484.595 3.76 4.517 3.906 6.615 4.819 2.244.978 7.167 2.654 10.322 3.685 1.752.57 3.693.183 5.064-1.048 3.38-3.032 9.677-8.89 11.716-12.22l-3.817-2.875z"/>
        <path fill="#FAFCFC" d="M85.986 120.085s-1.065 1.265-1.09 3.57c-.026 2.309.245 3.216.791 3.69.547.479 1.642 1.43 3.035 1.355 1.395-.076 3.152-.53 4.005-.708.85-.183 1.5-.078 4.546-.766 4.284-.973 6.898-3.662 7.333-4.748.437-1.102-.176-2.873-.176-2.873-3.553.39-10.487 1.596-11.704.074-1.216-1.52-6.74.406-6.74.406"/>
        <path fill="#0E2C3D" d="M85.712 118.808s-1.064 1.266-1.09 3.57c-.025 2.307.243 3.215.791 3.692.548.476 1.642 1.43 3.036 1.352 1.394-.076 3.153-.525 4.004-.71.851-.18 1.996.316 5.031-.409 3.036-.728 6.418-3.28 6.791-4.39.33-.98 1.212-3.632-2.34-3.242-3.553.391-8.268 1.251-9.482-.268-1.217-1.522-6.74.405-6.74.405"/>
        <path fill="#325A7F" d="M88.115 123.784c-.653-2.013-3.035-3.43-3.035-3.43l-.119-.065a6.985 6.985 0 0 0-.338 2.09c-.026 2.306.242 3.215.79 3.69.548.478 1.642 1.432 3.036 1.354.07-.004.142-.012.212-.02-.013-.811-.106-2.267-.546-3.62M96.157 122.998c-.137.163-.37-.007-.37-.22 0 0 .023-.597-.094-1.298-.168-.982-.66-1.658-1.057-1.848-.164-.076-.447-.025-.403-.2a.273.273 0 0 1 .366-.201c.498.206 1.468.776 1.698 2.145.138.813.091 1.343-.14 1.622M97.578 122.695c-.139.162-.369-.007-.373-.218 0 0 .024-.6-.095-1.303-.169-.98-.65-1.574-1.047-1.765-.16-.079-.454-.109-.413-.282.04-.163.211-.264.367-.2.5.206 1.468.775 1.701 2.146.136.812.091 1.342-.14 1.622"/>
        <path fill="#325A7F" d="M98.799 122.506c-.137.166-.37-.004-.372-.217 0 0 .023-.6-.094-1.3-.169-.982-.657-1.565-1.057-1.757-.162-.076-.445-.116-.404-.29.039-.165.212-.266.368-.204.498.208 1.467.777 1.7 2.149.138.81.09 1.343-.141 1.619"/>
        <path fill="#FAFCFC" d="M70.09 114.578s-.935 1.314-.776 3.562c.16 2.242.495 3.103 1.063 3.522.571.42 1.283.52 2.63.337 1.352-.188 3.515-1.498 4.329-1.744.813-.243.581-.248 3.485-1.162 4.09-1.286 4.791-2.378 5.128-3.468.339-1.11 0-2.373 0-2.373-3.426.663-8.03 1.776-9.335.393-1.304-1.38-6.524.933-6.524.933"/>
        <path fill="#0E2C3D" d="M69.721 113.357s-.934 1.315-.774 3.56c.158 2.246.493 3.105 1.061 3.525.571.42 1.633.638 2.975.4 1.068-.19 1.954-.572 2.728-.92 1.29-.58 2.037-.878 4.342-1.349 4.837-.993 5.85-3.545 6.126-4.655.24-.979-2.582-1.284-5.294-.895-3.895.557-3.66-.35-4.64-.6-1.842-.463-6.524.934-6.524.934"/>
        <path fill="#325A7F" d="M72.457 118.005c-.796-1.905-3.228-3.094-3.228-3.094l-.12-.054a6.794 6.794 0 0 0-.161 2.06c.157 2.246.492 3.106 1.06 3.526.572.419 1.668.594 3.017.409.067-.01.137-.024.206-.035-.081-.788-.241-1.531-.774-2.812"/>
        <path fill="#0A3075" d="M44.368 93.76l5.9-2.738 12.487-5.047c3.134-1.48 9.859-2.616 10.837 4.466l5.032 23.272s.899 3.596-4.313 3.865c-2.922.15-5.301-1.438-5.301-1.438l-3.864-17.702s-13.844 5.029-17.87 4.643c-7.185-.685-2.908-9.322-2.908-9.322"/>
        <path fill="#87561B" d="M104.11 130.279l-.01 3.877-10.886 6.325.008-3.874z"/>
        <path fill="#87561B" d="M93.223 136.607l-.01 3.874-70.802-40.784.01-3.875z"/>
        <path fill="#A5712B" d="M104.11 130.279l-10.888 6.328-70.8-40.785 10.887-6.325z"/>
        <path fill="#174C99" d="M71.286 93.395s9.853-2.423 11.932 1.29c.943 1.683 7.873 18.014 10.86 24.42.31.662-1.553 4.66-3.298 3.656-3.417-1.964-8.242-4.733-8.242-4.733l-6.489-16.527-4.763-8.106z"/>
        <path fill="#995710" d="M50.707 71.757l2.406-1.744 2.113.926-2.347 1.738z"/>
        <path fill="#6D4D37" d="M53.853 40.925l5.087.526-1.874 13.092c-.466 3.76-2.091 4.234-3.236 4.172-2.378-.132-4.931-1.634-6.207-2.505-2.478-1.685-2.146-6.095-2.145-6.453l-.271-8.843 8.646.011z"/>
        <path fill="#6D4D37" d="M42.861 60.281s1.706-2.246 2.025-3.119c.509-1.377.754-5.827.754-5.827l6.642 1.415s-.585 4.394-.935 5.86c-.218.912-1.346 3.661-1.346 3.661.021 1.09 5.903 8.535 5.967 11.917l-12.573-3.78c-.027-1.439-.534-10.127-.534-10.127"/>
        <path fill="#D6B980" d="M58.874 39.647c.512.098-.629.57-.544.68 1.135 1.498 1.8 1.543 2.214 1.456.23-.046-1.56 3.002-2.169 3.109-1.144.2-3.175 3.84-3.435 5.3 0 0 .196-.53-.148-.968-.349-.45-1.382-.66-2.527 2.1 0 0-1.224 2.248-3.028 2.372-2.005.137-2.51 1.093-2.812 1.863 0 0 .035-.934-.405-1.193-.373-.22-.796.043-.752.2.03.11-.353-1.433-2.047-4.456-3.38-6.037-1.042-10.184.303-11.302.616-.511 1.934-2.631 9.081-1.558.38.059 2.49.458 3.873-.317.076-.041-.199.64-.917 1.148-.248.175 1.57.523 2.466.228.273-.088-.564.837-.714.893-.36.135 1.561.445 1.561.445"/>
        <path fill="#7C5941" d="M54.781 47.792s-1.073.151-1.454 1.38c-.267.868.027 1.6.193 1.818.44.581.916.713.916.713s.02-2.093.049-2.479c.027-.386.296-1.432.296-1.432"/>
        <path fill="#876148" d="M55.297 47.347s.614-.02.164.852c-.448.869-.563 1.396-.589 1.89-.02.455.063 1.81.063 1.81s-.394.552-.752-.28c-.17-.395-.273-1.148-.235-2.111.016-.392.688-2.368 1.35-2.161"/>
        <g transform="translate(49 89.527)">
            <mask id="b" fill="#fff">
                <use xlink:href="#a"/>
            </mask>
            <path fill="#8E8A8B" d="M1.423 1.851l-.82-.49c.042-.028.116-.075.215-.129.354-.198 1.032-.495 1.63-.299.085.03.165.066.242.112l.816.493a1.028 1.028 0 0 0-.24-.11c-.598-.2-1.277.097-1.632.296-.097.056-.17.103-.211.127" mask="url(#b)"/>
        </g>
        <g transform="translate(68 102.527)">
            <mask id="d" fill="#fff">
                <use xlink:href="#c"/>
            </mask>
            <path fill="#8E8A8B" d="M1.157 1.033L.323.57C.363.542.435.491.531.433.878.223 1.546-.096 2.151.08c.086.026.167.06.244.102l.835.464a1.071 1.071 0 0 0-.246-.102C2.38.367 1.712.687 1.364.897c-.096.058-.166.11-.207.136" mask="url(#d)"/>
        </g>
        <g>
            <path fill="#174C99" d="M43.117 104.802c-3.078-2.394-3.282-9.503-3.282-9.503l1.71-13.17 13.173 6.841 4.143 6.06 17.71-2.438c5.212-.582 6.906.724 8.433 6.654l-3.092 3.236s-4.982 1.161-5.018 1.047c-.39-1.165-1.684-.838-1.684-.838s-12.482 3.282-17.726 4.677c-8.106 2.156-11.427-.279-14.367-2.566"/>
            <path fill="#50E3CD" d="M55.081 67.258c1.148 1.756 2.06 5.528 2.16 10.827l.633 13.971c.017.922 2.304 7.699-1.376 9.861-1.293.758-5.68 3.84-9.047 2.789-1.376-.431-7.808-3.863-7.845-5.802l-1.396-29.43c-.21-7.41 5.806-10.871 5.806-10.871l5.746 3.384s3.793 2.935 5.32 5.271"/>
            <path fill="#EDEFEF" d="M65.879 68.164a1.064 1.064 0 0 0 1.474-.296l19.476-29.09-1.764-1.177-19.481 29.09a1.064 1.064 0 0 0 .295 1.473"/>
            <path fill="#FFF" d="M81.321 44.89a.72.72 0 0 0 1-.204l6.691-9.838a.722.722 0 0 0-1.204-.8l-6.688 9.841a.723.723 0 0 0 .201 1"/>
            <path fill="#6D4D37" d="M74.014 56.26s.602-2.187.775-3.243c.164-1.062.373-2.466 1.118-3.282.741-.813 1.283-1.745 1.283-1.745s1.35-.02.911.887c-.438.902-1.227 2.404-1.126 2.998.101.593.414 1.58.094 2.284-.319.703-3.294 3.248-3.055 2.102"/>
            <path fill="#7C5941" d="M81.045 51.453s1.021-.848 2.653-1.93c1.243-.823-.12-2.224-.722-2.102-.109-.152-1.075.187-1.466.413l-1.97 1.156s.713-.916 1.68-1.87c.642-.627-.277-.96-.38-.973-.763-.12-1.934 1.006-3.58 2.724-2.165 2.267-3.619 8.364-3.619 8.364s1.844 1.519 3.291 1.422c1.45-.104 3.238-2.34 4.256-4.701.411-.963 1.272-1.466 2.694-2.715.623-.542.627-1.12-.003-1.196l-2.834 1.408z"/>
            <path fill="#5CF0DA" d="M73.58 56.685c-3.546 5.251-8.01 12.471-8.01 12.471-7.744-1.707-12.395-2.687-14.439-2.72-2.792-.05-5.568 2.875-4.172 5.868 1.616 3.448 5.425 2.503 7.692 2.8 2.428.316 7.622.566 10.94.682a5.184 5.184 0 0 0 4.575-2.409c2.41-3.849 6.837-11.22 7.875-14.985l-4.462-1.707z"/>
            <path fill="#000" d="M93.702 122.66c0 3.272-5.078 5.923-11.344 5.923-6.265 0-11.344-2.651-11.344-5.923 0-3.27 5.079-5.921 11.344-5.921 6.266 0 11.344 2.65 11.344 5.92"/>
            <path fill="#E2E2E2" d="M76.03 98.73l-.41-.245c.151.084.23.268.23.535.01.518-.355 1.161-.817 1.428-.224.128-.433.144-.593.052l.42.243c.148.083.355.074.584-.062.46-.265.829-.9.829-1.427 0-.265-.1-.444-.243-.525"/>
            <path fill="#C1C1C1" d="M75.444 100.681c.46-.266.829-.9.829-1.427 0-.525-.379-.736-.829-.476-.462.267-.828.91-.828 1.435 0 .52.366.734.828.468m0-2.363c.676-.405 1.237-.083 1.237.71l.008 2.533-2.485 1.43-.006-2.53c0-.792.558-1.745 1.246-2.143"/>
            <path fill="#E2E2E2" d="M75.913 97.994c-.228-.136-.542-.119-.88.078-.683.4-1.247 1.36-1.247 2.141l.012 2.545.406.233-.006-2.53c0-.792.558-1.745 1.246-2.143.34-.203.651-.219.877-.083l-.408-.24z"/>
            <path fill="#C1C1C1" d="M93.85 120.485l-.042.856c0 1.701-1.115 3.4-3.345 4.697-4.467 2.593-11.759 2.593-16.273 0-2.274-1.319-3.404-3.036-3.404-4.75l.05-.874c-.016 1.715 1.124 3.434 3.384 4.75 4.517 2.604 11.804 2.604 16.283 0 2.223-1.286 3.34-2.987 3.347-4.679"/>
            <path fill="#AAA9A9" d="M90.445 115.74c4.514 2.596 4.54 6.824.058 9.424-4.478 2.604-11.766 2.604-16.283 0-4.504-2.6-4.528-6.828-.047-9.424 4.482-2.606 11.767-2.606 16.272 0"/>
        </g>
        <g transform="translate(71 106.527)">
            <mask id="f" fill="#fff">
                <use xlink:href="#e"/>
            </mask>
            <path fill="#C1C1C1" d="M22.698.527l-.041 13.055c0 1.669-1.096 3.329-3.285 4.602-4.403 2.559-11.57 2.559-16.006 0C1.146 16.899.03 15.213.038 13.517L.075.456C.068 2.153 1.185 3.836 3.41 5.12c4.434 2.56 11.602 2.56 16.004.01 2.18-1.276 3.276-2.942 3.285-4.604" mask="url(#f)"/>
        </g>
        <path fill="#E2E2E2" d="M93.698 110.381l-.041 6.645c0 1.664-1.096 3.32-3.285 4.603-4.403 2.56-11.57 2.56-16.005 0-2.222-1.296-3.339-2.986-3.329-4.662l.038-6.647c-.008 1.681 1.11 3.375 3.333 4.667 4.434 2.553 11.601 2.553 16.003 0 2.181-1.273 3.277-2.947 3.285-4.606"/>
        <g transform="translate(71 109.527)">
            <mask id="h" fill="#fff">
                <use xlink:href="#g"/>
            </mask>
            <path fill="#E2E2E2" d="M22.698.855L22.657 7.5c0 1.662-1.096 3.32-3.285 4.601-4.403 2.56-11.57 2.56-16.006 0C1.146 10.806.03 9.115.038 7.441L.075.793C.068 2.474 1.185 4.168 3.41 5.46c4.434 2.552 11.602 2.552 16.004 0 2.18-1.272 3.276-2.947 3.285-4.606" mask="url(#h)"/>
        </g>
        <g>
            <path fill="#E2E2E2" d="M89.674 110.996c-3.937 2.299-10.379 2.299-14.353 0-3.974-2.287-3.989-6.018-.044-8.304 3.954-2.301 10.377-2.301 14.36 0 3.97 2.286 3.995 6.017.037 8.304m.674-8.6c-4.434-2.56-11.594-2.56-15.998 0-4.406 2.564-4.381 6.706.052 9.275 4.438 2.554 11.597 2.554 15.993 0 4.407-2.57 4.377-6.711-.046-9.274"/>
            <path fill="#E2E2E2" d="M75.913 97.994c-.228-.136-.542-.119-.88.078-.683.4-1.247 1.36-1.247 2.141l.012 2.545.406.233-.006-2.53c0-.792.558-1.745 1.246-2.143.34-.203.651-.219.877-.083l-.408-.24z"/>
            <path fill="#E2E2E2" d="M75.913 97.994c-.228-.136-.542-.119-.88.078-.683.4-1.247 1.36-1.247 2.141l.012 2.545.406.233-.006-2.53c0-.792.558-1.745 1.246-2.143.34-.203.651-.219.877-.083l-.408-.24z"/>
            <path fill="#999" d="M92.817 106.124l-.028.789c-.009 1.517-1.012 3.04-3.014 4.205-4.017 2.338-10.568 2.338-14.625 0-2.027-1.181-3.048-2.728-3.04-4.263l.026-.786c0 1.545 1.021 3.089 3.051 4.262 4.053 2.344 10.604 2.344 14.625.009 2-1.164 3.005-2.686 3.005-4.216"/>
            <path fill="#E55433" d="M88.531 102.736c3.492 2.021 3.523 5.301.037 7.322-3.481 2.015-9.129 2.015-12.629-.011-3.498-2.01-3.517-5.29-.045-7.311 3.476-2.021 9.138-2.021 12.637 0"/>
            <path fill="#D64730" d="M87.903 109.417c-3.008 1.757-7.911 1.757-10.938 0-3.038-1.746-3.042-4.58-.033-6.333 3.01-1.748 7.905-1.748 10.931 0 3.042 1.754 3.059 4.587.04 6.333m1.936-7.19c-4.048-2.341-10.599-2.341-14.624 0-4.026 2.346-4.001 6.138.044 8.47 4.053 2.34 10.602 2.34 14.619 0 4.03-2.332 4.014-6.124-.039-8.47"/>
            <path fill="#E2E2E2" d="M90.93 108.073l-.408-.242c.15.09.245.273.245.542 0 .52-.371 1.151-.822 1.42-.235.133-.44.151-.59.06l.407.244c.149.082.37.066.594-.061.452-.267.824-.902.824-1.428 0-.266-.097-.447-.25-.535"/>
            <path fill="#E2E2E2" d="M90.816 107.349c-.223-.147-.538-.123-.88.082-.68.392-1.237 1.35-1.237 2.132l.009 2.543.395.2.007-2.497c0-.785.554-1.745 1.239-2.138.34-.201.656-.227.876-.09l-.41-.232z"/>
            <path fill="#C1C1C1" d="M90.356 110.036c.453-.268.824-.902.824-1.43-.01-.525-.371-.735-.831-.475-.462.268-.826.898-.826 1.426 0 .534.373.735.833.479m-.007-2.365c.684-.404 1.246-.085 1.246.703l.008 3.297-1.254.715-1.246-.064.007-2.513c0-.785.554-1.745 1.239-2.138"/>
            <path fill="#E2E2E2" d="M75.913 97.994c-.228-.136-.542-.119-.88.078-.683.4-1.247 1.36-1.247 2.141l.012 2.545.038.025.38-.304-.018-2.019c0-.79.558-1.744 1.246-2.142.34-.203.651-.219.877-.083l-.408-.24z"/>
            <path fill="#BC3E3B" d="M76.455 112.914a.54.54 0 0 0-.72.492l-.228 6.45a.713.713 0 0 1-.813.694.709.709 0 0 0 .958-.653l.226-6.448a.552.552 0 0 1 .606-.53c-.023 0-.023-.005-.03-.005M72.307 112.854l-.014.602c-.01.234-.217.388-.427.388a.402.402 0 0 0 .568-.358l.027-.598c.005-.234.208-.386.417-.38a.407.407 0 0 0-.571.346M80.16 113.989a1.042 1.042 0 0 0-1.216 1.012v.259a.75.75 0 0 1-.86.719c.014 0 .031.008.06.021a.749.749 0 0 0 .942-.695v-.26a1.058 1.058 0 0 1 1.214-1.022c.034 0 .067.016.1.023-.086-.023-.158-.05-.24-.057M84.967 115.17a.688.688 0 0 0-.663.658l-.049 1.253c-.035.8-.727 1.41-1.522 1.34-.07 0-.136-.031-.2-.038.115.039.226.072.337.072a1.397 1.397 0 0 0 1.523-1.332l.063-1.263a.67.67 0 0 1 .651-.65h.1a.736.736 0 0 0-.24-.04"/>
            <path fill="#F2665F" d="M72.152 106.433c.016.1.034.194.049.29-.015-.096-.033-.19-.05-.29M72.152 106.433c0-.097-.006-.19-.006-.288 0 .098.006.19.006.288"/>
            <path fill="#E55433" d="M87.101 112.24c-3.873 1.104-8.665.76-11.95-1.122-1.939-1.133-2.95-2.59-3.04-4.057v-.206l.025-.786c0 .022-.112-1.961 2.084-3.59v-.01c-2.21 1.343-3.268 3.08-3.145 4.808l-.047 5.243c-.01.48.218.953.615 1.242a.406.406 0 0 0 .65-.306l.014-.602a.41.41 0 0 1 .603-.334c.352.199.557.575.557.983l-.026 5.313a1.837 1.837 0 0 0 1.01 1.669.722.722 0 0 0 1.055-.628l.228-6.451a.541.541 0 0 1 .721-.492.99.99 0 0 1 .671.97l-.029.858a1.249 1.249 0 0 0 .9 1.222.754.754 0 0 0 .947-.704V115a1.042 1.042 0 0 1 1.216-1.011 1.368 1.368 0 0 1 1.157 1.379l-.027 1.447a1.589 1.589 0 0 0 1.442 1.607 1.404 1.404 0 0 0 1.522-1.341l.05-1.253a.685.685 0 0 1 .663-.658.607.607 0 0 1 .622.624l-.113 5.384c0 .506.43.909.951.846.551-.065.968-.543.973-1.107l.157-8.04 1.141-1.218s-.633.298-1.597.58"/>
            <path fill="#B7B9B9" d="M101.007 35.123c1.245-.718 2.252-2.464 2.25-3.898-.006-1.43-1.02-2.008-2.266-1.29-1.246.72-2.254 2.467-2.25 3.896.002 1.434 1.019 2.013 2.266 1.292m-.02-6.716c1.98-1.143 3.592-.225 3.6 2.05.004 2.28-1.597 5.048-3.575 6.19-1.984 1.145-3.593.23-3.599-2.05-.007-2.274 1.591-5.045 3.575-6.19"/>
            <path fill="#378A87" d="M100.991 29.935c1.245-.718 2.26-.14 2.265 1.29.003 1.434-1.004 3.18-2.25 3.898-1.247.721-2.263.142-2.265-1.292-.005-1.429 1.003-3.176 2.25-3.896"/>
            <path fill="#FFF" d="M95.991 38.698a3.802 3.802 0 0 1-1.943-.536l-11.414-6.748a3.24 3.24 0 0 1-1.522-2.127 3.24 3.24 0 0 1 .551-2.557l1.946-2.68a.525.525 0 1 1 .848.617l-1.944 2.68a2.161 2.161 0 0 0-.373 1.726 2.16 2.16 0 0 0 1.028 1.437l11.416 6.75a2.747 2.747 0 0 0 3.63-.745l2.787-3.804a.525.525 0 0 1 .846.62l-2.786 3.804a3.796 3.796 0 0 1-3.07 1.563"/>
            <path fill="#EDEFEF" d="M89.628 20.18c-.652-.38-1.555-.328-2.552.248-1.981 1.144-3.58 3.916-3.573 6.19.002 1.132.402 1.928 1.044 2.302l13.912 7.98c-.645-.375-1.041-1.17-1.045-2.303-.008-2.274 1.59-5.045 3.574-6.19.996-.576 1.899-.628 2.552-.249L89.628 20.18z"/>
            <path fill="#F26953" d="M91.3 21.156l9.757 5.6s-1.532-.131-3.15 2.058c-1.51 2.042-2.337.756-1.618-.832 1.224-2.713.35-2.975-1.401-2.363-1.75.613-3.02 2.188-2.976 4.201.042 2.012-3.544.175-2.1-2.933 1.445-3.106 3.151-3.543 1.663-3.5-1.487.044-2.013 1.006-2.715 1.75-.699.745-.83-2.975 2.54-3.981"/>
            <path fill="#B54E96" d="M95.632 27.281s-2.56 1.608-1.577 3.84c.985 2.231 2.837.906 1.97-.165-1.117-1.378-.82-2.427-.394-3.675"/>
            <path fill="#C48D4B" d="M97.894 130.72a1.657 1.657 0 0 1-3.313 0V-65.416a1.656 1.656 0 1 1 3.313 0V130.72zM31.614 92.793a1.657 1.657 0 0 1-3.313 0v-196.136a1.656 1.656 0 1 1 3.313 0V92.793z"/>
            <g transform="translate(0 186.527)">
                <mask id="j" fill="#fff">
                    <use xlink:href="#i"/>
                </mask>
                <path fill="#000" d="M67.332 63L0 23.829 43.527.766l68.92 37.73z" mask="url(#j)" opacity=".2"/>
            </g>
        </g>
    </g>
</svg>
