<svg xmlns="http://www.w3.org/2000/svg" width="90" height="26" viewBox="0 0 90 26">
    <path fill="#FFF" fill-rule="nonzero" d="M0 0h90v26H0V0zm85.95 18.675c-.175.05-.325.075-.475.075-.525 0-.775-.225-.775-.875V13c0-2.575-2.05-3.825-4.475-3.825-1.85 0-2.85.225-4.825 1.025l-.4 2.6 2.575.275.375-1.275c.525-.275 1.05-.325 1.725-.325 1.825 0 1.85 1.375 1.85 2.525v.375c-.575-.075-1.225-.1-1.85-.1-2.575 0-5.25.65-5.25 3.425 0 2.35 1.85 3.225 3.475 3.225 1.825 0 2.975-1.1 3.625-2.25.15 1.375.975 2.25 2.475 2.25.7 0 1.425-.2 2.025-.525l-.075-1.725zm-11.225-15.2H71.55L66.675 20.65h3.175l4.875-17.175zm-6.55 0H65L60.125 20.65H63.3l4.875-17.175zM54.675 9.4v4.05h3.375V9.4h-3.375zm0 7.225v4.05h3.375v-4.05h-3.375zm-4.925-.15l-.525 1.75h-3.65l6.25-7.125-.25-1.7H41.7l-.4 3.95 2.325.25.5-1.75h3.525l-6.2 7.125.325 1.7H51.6l.7-3.95-2.55-.25zm-16.125-7.3c-4.05 0-6.05 2.725-6.05 6.025 0 3.6 2.4 5.725 5.875 5.725 3.6 0 6.2-2.275 6.2-5.875 0-3.15-1.975-5.875-6.025-5.875zm-8.95 9.025h.05v-5.125c0-2.675-1.85-3.9-3.875-3.9-1.775 0-3.05.925-3.675 2.425-.55-1.65-2.05-2.425-3.675-2.425-1.575 0-2.75.725-3.425 1.925V9.4H5.35v2.45h1.5v6.375h-1.5v2.45h6.85v-2.45h-2.15V14.3c0-1.575.625-2.675 2.175-2.675 1.275 0 1.925.75 1.925 2.7v6.35h4.725v-2.45h-1.5V14.3c0-1.575.625-2.675 2.175-2.675 1.275 0 1.925.75 1.925 2.7v6.325h4.7V18.2h-1.5zm54.375.4c-.975 0-1.325-.575-1.325-1.3 0-1.225 1-1.55 2.15-1.55.525 0 1.1.075 1.625.15-.075 1.875-1.3 2.7-2.45 2.7zm-45.5-.175c-1.75 0-2.65-1.5-2.65-3.45 0-2.125 1.025-3.35 2.675-3.35 1.525 0 2.75 1.025 2.75 3.3 0 2.175-1.1 3.5-2.775 3.5z"/>
</svg>
