<svg xmlns="http://www.w3.org/2000/svg" width="10" height="10" viewBox="0 0 10 10">
    <g fill="none" fill-rule="evenodd">
        <path d="M-1-1h12v12H-1z"/>
        <g fill-rule="nonzero">
            <circle cx="5" cy="5" r="5" fill="#FF9E24"/>
            <circle cx="5" cy="5" r="4.052" fill="#FFF"/>
            <path fill="#181818" d="M6.828 3.73a.404.404 0 1 0-.572-.57L4.444 4.983l.572.572L6.828 3.73z"/>
            <path fill="#EE3840" d="M4.77 4.895L2.637 7.027a.237.237 0 0 0 .336.336L5.105 5.23l-.335-.335z"/>
            <path fill="#181818" d="M3.341 2.805a.38.38 0 1 0-.536.536l1.94 1.94.536-.536-1.94-1.94z"/>
            <path fill="#524E4D" d="M5 5.574a.575.575 0 1 1 .001-1.15A.575.575 0 0 1 5 5.575z"/>
            <g fill="#7A7674">
                <path d="M2.251 5.19h-.355c-.131 0-.237-.096-.237-.214 0-.117.106-.213.237-.213h.355c.131 0 .237.096.237.213 0 .118-.106.214-.237.214zM4.976 2.488c-.117 0-.213-.106-.213-.237v-.355c0-.131.096-.237.213-.237.118 0 .214.106.214.237v.355c0 .131-.096.237-.214.237zM8.104 5.19H7.75c-.131 0-.237-.096-.237-.214 0-.117.106-.213.237-.213h.355c.131 0 .237.096.237.213 0 .118-.106.214-.237.214zM4.976 8.341c-.117 0-.213-.106-.213-.237V7.75c0-.131.096-.237.213-.237.118 0 .214.106.214.237v.355c0 .131-.096.237-.214.237z"/>
            </g>
        </g>
    </g>
</svg>
