<svg xmlns="http://www.w3.org/2000/svg" width="10" height="9" viewBox="0 0 10 9">
    <g fill="none" fill-rule="evenodd">
        <path d="M-1-1h12v12H-1z"/>
        <g fill-rule="nonzero">
            <path fill="#F4A026" d="M6.738 2.781c.644 0 .905.774.905 1.41v1.938c0 1.436-1.177 2.6-2.63 2.6-1.453 0-2.63-1.164-2.63-2.6V4.19c0-.636.261-1.41.905-1.41h3.45z"/>
            <path fill="#CA463D" d="M6.035 3.425H3.991a.667.667 0 0 1-.67-.663c0-.772.632-1.397 1.412-1.397h.56c.78 0 1.413.625 1.413 1.397 0 .366-.3.663-.67.663z"/>
            <path fill="#000" d="M9.74 5.17H7.89V4.19c0-.02.007-.04.006-.059.94-.097 1.479-.708 1.479-1.711v-.232a.259.259 0 0 0-.26-.258.259.259 0 0 0-.26.258v.232c0 .741-.333 1.136-1.014 1.2-.119-.522-.408-.973-.89-1.076a1.655 1.655 0 0 0-.9-1.26c.201-.202.33-.48.33-.786V.27A.259.259 0 0 0 6.12.013a.259.259 0 0 0-.26.257V.5a.613.613 0 0 1-.622.602h-.45a.613.613 0 0 1-.621-.602V.27a.259.259 0 0 0-.26-.257.259.259 0 0 0-.261.257V.5c0 .306.128.584.33.787-.483.242-.83.708-.903 1.26-.482.102-.77.554-.889 1.077-.698-.057-1.038-.452-1.038-1.202v-.232a.259.259 0 0 0-.26-.258.259.259 0 0 0-.261.258v.232c0 1.012.536 1.625 1.492 1.713 0 .02-.008.038-.008.057v.979H.26a.259.259 0 0 0-.26.257c0 .142.117.258.26.258h1.85v.444c0 .205.028.405.07.598-.995.067-1.555.685-1.555 1.72v.231c0 .142.117.258.26.258.144 0 .26-.116.26-.258v-.232c0-.807.394-1.203 1.203-1.21a2.896 2.896 0 0 0 2.665 1.751 2.896 2.896 0 0 0 2.665-1.75c.79.015 1.176.41 1.176 1.21v.231c0 .142.117.258.26.258.144 0 .261-.116.261-.258v-.232c0-1.025-.563-1.642-1.542-1.717.042-.194.058-.394.058-.6v-.444H9.74c.143 0 .26-.116.26-.258a.259.259 0 0 0-.26-.257zM4.733 1.616h.56c.635 0 1.152.511 1.152 1.14a.408.408 0 0 1-.41.405H3.991a.408.408 0 0 1-.41-.406c0-.628.517-1.14 1.152-1.14zM2.63 6.129V4.19c0-.402.136-.976.478-1.12.13.354.48.605.883.605h.749v4.78C3.56 8.322 2.63 7.33 2.63 6.13zm2.63 2.33V3.676h.775a.92.92 0 0 0 .87-.606c.342.145.465.72.465 1.121v1.938c0 1.21-.919 2.208-2.11 2.33z"/>
        </g>
    </g>
</svg>
