<svg xmlns="http://www.w3.org/2000/svg" width="9" height="8" viewBox="0 0 9 8">
    <g fill="none" fill-rule="evenodd">
        <path d="M-2-2h12v12H-2z"/>
        <g fill-rule="nonzero">
            <path fill="#6077A8" d="M6.4 8H1.6C.718 8 0 7.282 0 6.4V1.6C0 .718.718 0 1.6 0h4.8C7.282 0 8 .718 8 1.6v4.8C8 7.282 7.282 8 6.4 8zM1 2v4a1 1 0 0 0 1 1h4a1 1 0 0 0 1-1l-.002-4a1 1 0 0 0-1-1H2a1 1 0 0 0-1 1z"/>
            <path fill="#A0CC81" d="M4.333 6a.74.74 0 0 1-.55-.251L2.228 4.035a.92.92 0 0 1 0-1.212.728.728 0 0 1 1.1 0L4.333 3.93 7.673.25a.728.728 0 0 1 1.1 0 .92.92 0 0 1 0 1.212L4.882 5.75a.74.74 0 0 1-.55.251z"/>
        </g>
    </g>
</svg>
